<svg width="30" height="30" viewBox="0 0 30 30" fill="none" xmlns="http://www.w3.org/2000/svg">
<g id="Elements">
<circle id="bg" cx="15" cy="15" r="15" fill="#373943"/>
<g id="icons">
<g id="bx:bx-wallet">
<path id="Vector" d="M17.5 15H18.75V17.5H17.5V15Z" fill="white"/>
<path id="Vector_2" d="M20 11.875V10.625C20 9.93562 19.4394 9.375 18.75 9.375H10.625C9.59125 9.375 8.75 10.2162 8.75 11.25V18.75C8.75 20.1256 9.87125 20.625 10.625 20.625H20C20.6894 20.625 21.25 20.0644 21.25 19.375V13.125C21.25 12.4356 20.6894 11.875 20 11.875ZM10.625 10.625H18.75V11.875H10.625C10.4641 11.8678 10.3121 11.7988 10.2008 11.6824C10.0895 11.566 10.0273 11.4111 10.0273 11.25C10.0273 11.0889 10.0895 10.934 10.2008 10.8176C10.3121 10.7012 10.4641 10.6322 10.625 10.625ZM20 19.375H10.6325C10.3438 19.3675 10 19.2531 10 18.75V13.0094C10.1963 13.08 10.4044 13.125 10.625 13.125H20V19.375Z" fill="white"/>
</g>
</g>
</g>
</svg>
