<svg width="30" height="30" viewBox="0 0 30 30" fill="none" xmlns="http://www.w3.org/2000/svg">
<circle cx="15" cy="15" r="15" fill="#373943"/>
<path d="M20 10H10C9.31063 10 8.75 10.5606 8.75 11.25V18.75C8.75 19.4394 9.31063 20 10 20H20C20.6894 20 21.25 19.4394 21.25 18.75V11.25C21.25 10.5606 20.6894 10 20 10ZM20 11.25V11.5694L15 15.4587L10 11.57V11.25H20ZM10 18.75V13.1525L14.6163 16.7431C14.7257 16.8291 14.8608 16.8758 15 16.8758C15.1392 16.8758 15.2743 16.8291 15.3838 16.7431L20 13.1525L20.0013 18.75H10Z" fill="white"/>
</svg>
