<svg width="30" height="30" viewBox="0 0 30 30" fill="none" xmlns="http://www.w3.org/2000/svg">
<g id="Elements">
<circle id="bg" cx="15" cy="15" r="15" fill="#373943"/>
<g id="icons">
<g id="bx:bx-notification">
<path id="Vector" d="M18.75 13.125C19.7855 13.125 20.625 12.2855 20.625 11.25C20.625 10.2145 19.7855 9.375 18.75 9.375C17.7145 9.375 16.875 10.2145 16.875 11.25C16.875 12.2855 17.7145 13.125 18.75 13.125Z" fill="#38F2AF"/>
<path id="Vector_2" d="M18.75 19.375H10.625V11.25H15.625C15.625 10.805 15.7206 10.3831 15.8888 10H10.625C9.93562 10 9.375 10.5606 9.375 11.25V19.375C9.375 20.0644 9.93562 20.625 10.625 20.625H18.75C19.4394 20.625 20 20.0644 20 19.375V14.1112C19.6062 14.285 19.1805 14.3748 18.75 14.375V19.375Z" fill="white"/>
</g>
</g>
</g>
</svg>
