<svg width="48" height="58" viewBox="0 0 48 58" fill="none" xmlns="http://www.w3.org/2000/svg">
<path fill-rule="evenodd" clip-rule="evenodd" d="M7.32033 22.5367V7.51772C5.95496 6.25106 4.58961 5.05019 3.22425 3.93158V4.22769V22.5531C3.22425 27.8994 5.41211 32.7687 8.93244 36.289C12.4528 39.8093 17.322 41.9972 22.6848 41.9972H37.0128C36.2397 40.6318 35.4501 39.2665 34.6111 37.9011H22.6848C18.4571 37.9011 14.6242 36.1739 11.8277 33.3773C9.0476 30.5973 7.32033 26.7644 7.32033 22.5367ZM47.5574 57.1478C40.3687 34.4137 15.5289 7.64931 1.14441e-05 0C2.08918 0.526405 4.24415 1.26666 6.41557 2.15497H28.0969C33.4432 2.15497 38.3124 4.34284 41.8492 7.86317C45.3695 11.3835 47.5574 16.2527 47.5574 21.6155V40.8293V41.9808V57.1478ZM14.7229 6.25105H28.0969C32.3245 6.25105 36.1574 7.97832 38.954 10.7748C41.734 13.5549 43.4613 17.4042 43.4613 21.6319V32.7522C37.0622 22.7505 26.0406 12.7489 14.7229 6.25105Z" fill="url(#paint0_linear_37_28)"/>
<defs>
<linearGradient id="paint0_linear_37_28" x1="23.7787" y1="0" x2="23.7787" y2="57.1478" gradientUnits="userSpaceOnUse">
<stop stop-color="#CAF460"/>
<stop offset="1" stop-color="#72FCBF"/>
</linearGradient>
</defs>
</svg>
