<svg width="331" height="58" viewBox="0 0 331 58" fill="none" xmlns="http://www.w3.org/2000/svg">
<path fill-rule="evenodd" clip-rule="evenodd" d="M4.33012 31.8168V25.351H16.3653C19.7403 25.351 21.587 23.4945 21.587 20.3576V17.6689C21.587 14.66 19.6766 12.7395 16.4927 12.7395H0V31.8168H4.33012ZM121.371 20.9338H111.883V24.7748H117.041V27.9757H106.534C105.133 27.9757 104.241 27.2075 104.241 25.7351V18.8852C104.241 17.4128 104.942 16.5806 106.789 16.5806H120.798V12.7395H105.515C102.14 12.7395 99.975 14.66 99.975 17.9249V26.8234C99.975 30.0243 102.204 31.8808 105.515 31.8808H121.371V20.9338ZM195.62 31.8808V27.9757H212.113V24.0706H199.568C197.976 24.0706 196.575 23.1104 196.002 21.702C195.811 21.2539 195.684 20.8697 195.684 20.3576V16.6446C195.684 15.5563 196.066 14.66 196.83 13.8918C197.212 13.5077 197.594 13.2516 198.103 13.0596C198.549 12.8675 199.058 12.8035 199.568 12.8035H216.124V16.5806H199.759V20.2296H212.304C214.341 20.2296 216.188 21.83 216.188 23.9426V27.9757C216.188 28.4878 216.061 29 215.87 29.4481C215.678 29.8962 215.424 30.3444 215.042 30.7285C214.66 31.1126 214.278 31.3686 213.768 31.5607C213.322 31.7527 212.813 31.8808 212.304 31.8808H195.62ZM172.632 31.8808V27.9757H189.061V24.0706H176.516C174.924 24.0706 173.523 23.1104 172.95 21.702C172.759 21.2539 172.632 20.8697 172.632 20.3576V16.6446C172.632 15.5563 173.014 14.66 173.778 13.8918C174.16 13.5077 174.542 13.2516 175.052 13.0596C175.497 12.8675 176.007 12.8035 176.516 12.8035H193.073V16.5806H176.707V20.2296H189.252C191.29 20.2296 193.136 21.83 193.136 23.9426V27.9757C193.136 28.4878 193.009 29 192.818 29.4481C192.627 29.8962 192.372 30.3444 191.99 30.7285C191.608 31.1126 191.226 31.3686 190.717 31.5607C190.271 31.7527 189.761 31.8808 189.252 31.8808H172.632ZM4.33012 21.5099V16.5806H15.5375C16.62 16.5806 17.3842 17.2207 17.3842 18.117V19.9095C17.3842 20.7417 16.8111 21.5099 15.5375 21.5099H4.33012ZM46.9309 31.8168L42.6008 24.7108C45.1479 24.3267 46.6125 22.4702 46.6125 19.8455V17.3488C46.6125 14.532 44.5748 12.6755 41.5819 12.6755H25.0256V16.5165H40.6904C41.6456 16.5165 42.4098 17.1567 42.4098 18.117V19.3333C42.4098 20.2936 41.773 20.9338 40.6904 20.9338H25.0256V31.8168H29.292V24.7748H37.6339L42.0914 31.8168H46.9309ZM146.651 31.8168L142.321 24.7108C144.868 24.3267 146.333 22.4702 146.333 19.8455V17.3488C146.333 14.532 144.295 12.6755 141.302 12.6755H124.746V16.5165H140.347C141.302 16.5165 142.066 17.1567 142.066 18.117V19.3333C142.066 20.2936 141.43 20.9338 140.347 20.9338H124.746V31.8168H129.012V24.7748H137.354L141.812 31.8168H146.651ZM150.153 31.8168H170.467V27.9757H154.484V24.0706H168.684V20.2296H154.484V16.5806H170.467V12.7395H150.153V31.8168ZM234.018 31.8168H238.348V24.1346H252.676V20.2936H234.018V31.8168ZM254.204 16.5806V12.7395H234.018V16.5806H254.204ZM271.652 31.8168L269.741 28.1678H258.598L256.687 31.8168H251.848L262.036 12.6755H266.239L276.428 31.8168H271.652ZM260.635 24.3267H267.704L264.201 17.6049L260.635 24.3267ZM300.88 31.8168L296.55 24.7108C299.097 24.3267 300.562 22.4702 300.562 19.8455V17.3488C300.562 14.532 298.524 12.6755 295.531 12.6755H278.975V16.5165H294.64C295.595 16.5165 296.359 17.1567 296.359 18.117V19.3333C296.359 20.2936 295.722 20.9338 294.64 20.9338H279.038V31.8168H283.305V24.7748H291.647L296.104 31.8168H300.88ZM326.733 12.7395L317.691 23.2384L308.649 12.7395H304.382V31.8808H308.585V18.9492L316.481 28.0397H319.028L326.861 18.9492V31.8168H331V12.6755H326.733V12.7395Z" fill="url(#paint0_linear_37_100)"/>
<path fill-rule="evenodd" clip-rule="evenodd" d="M91.251 22.9183V7.68213C92.652 6.40178 93.9892 5.18543 95.3901 4.03311V22.9183C95.3901 28.3598 93.1614 33.2892 89.5954 36.8742C86.0294 40.4592 81.1262 42.6998 75.7135 42.6998H61.2585C62.0227 41.2914 62.8505 39.947 63.6783 38.5386H75.7135C79.98 38.5386 83.8644 36.8102 86.6662 33.9294C89.5317 31.0486 91.251 27.2075 91.251 22.9183ZM50.6879 58C57.9473 34.9536 83.0365 7.74614 98.7014 0C96.6 0.512141 94.435 1.28036 92.2062 2.17661H70.3009C64.8882 2.17661 59.985 4.41723 56.419 8.00222C52.853 11.5872 50.6243 16.5166 50.6243 21.9581V58H50.6879ZM83.8007 6.40178H70.3009C66.0344 6.40178 62.15 8.13024 59.3482 11.011C56.5463 13.8278 54.7634 17.7329 54.7634 22.0221V33.2892C61.2586 23.1104 72.4023 12.9956 83.8007 6.40178Z" fill="url(#paint1_linear_37_100)"/>
<defs>
<linearGradient id="paint0_linear_37_100" x1="-6" y1="36" x2="331" y2="19.5" gradientUnits="userSpaceOnUse">
<stop stop-color="#72FCBF"/>
<stop offset="0.53125" stop-color="#B4FF79"/>
<stop offset="1" stop-color="#9EC53B"/>
</linearGradient>
<linearGradient id="paint1_linear_37_100" x1="-6" y1="36" x2="331" y2="19.5" gradientUnits="userSpaceOnUse">
<stop stop-color="#72FCBF"/>
<stop offset="0.53125" stop-color="#B4FF79"/>
<stop offset="1" stop-color="#9EC53B"/>
</linearGradient>
</defs>
</svg>
