<svg width="187" height="34" viewBox="0 0 187 34" fill="none" xmlns="http://www.w3.org/2000/svg">
<path fill-rule="evenodd" clip-rule="evenodd" d="M0.0359721 18.4712H2.44632V14.8138H9.24567C11.1524 14.8138 12.1956 13.7637 12.1956 11.9893V10.4683C12.1956 8.76637 11.1164 7.68001 9.31762 7.68001H0V18.4712H0.0359721ZM68.5691 12.3152H63.2087V14.4879H66.1227V16.2985H60.1868C59.3953 16.2985 58.8917 15.864 58.8917 15.0311V11.1564C58.8917 10.3235 59.2874 9.85274 60.3307 9.85274H68.2453V7.68001H59.6112C57.7045 7.68001 56.4813 8.76638 56.4813 10.6132V15.6467C56.4813 17.4573 57.7405 18.5075 59.6112 18.5075H68.5691V14.5241V12.4962V12.3152ZM110.588 18.5075H110.516V16.2985H110.66H115.085H119.834V14.0896H112.747C111.847 14.0896 111.056 13.5464 110.732 12.7497C110.624 12.4962 110.552 12.279 110.552 11.9893V9.88896C110.552 9.27335 110.768 8.76637 111.2 8.33183C111.416 8.11456 111.632 7.96971 111.919 7.86107C112.171 7.75244 112.459 7.71623 112.747 7.71623H122.1V9.85274H116.704H112.855V11.9168H119.942C121.093 11.9168 122.136 12.8221 122.136 14.0171V16.2985C122.136 16.5882 122.064 16.8779 121.957 17.1314C121.849 17.3849 121.705 17.6384 121.489 17.8556C121.273 18.0729 121.057 18.2178 120.769 18.3264C120.517 18.435 120.23 18.5075 119.942 18.5075H110.588ZM97.6012 18.5075H97.5292V16.2985H97.6731H102.098H106.811V14.0896H99.7237C98.8243 14.0896 98.0329 13.5464 97.7091 12.7497C97.6012 12.4962 97.5292 12.279 97.5292 11.9893V9.88896C97.5292 9.27335 97.7451 8.76637 98.1768 8.33183C98.3926 8.11456 98.6085 7.96971 98.8963 7.86107C99.1481 7.75244 99.4359 7.71623 99.7237 7.71623H109.077V9.85274H103.681H99.8317V11.9168H106.919C108.07 11.9168 109.113 12.8221 109.113 14.0171V16.2985C109.113 16.5882 109.041 16.8779 108.933 17.1314C108.826 17.3849 108.682 17.6384 108.466 17.8556C108.25 18.0729 108.034 18.2178 107.746 18.3264C107.494 18.435 107.207 18.5075 106.919 18.5075H97.6012ZM2.44632 12.6411V9.85274H8.77799C9.38957 9.85274 9.82127 10.2149 9.82127 10.7218V11.7358C9.82127 12.2065 9.4975 12.6411 8.77799 12.6411H2.44632ZM26.5138 18.4712L24.0675 14.4517C25.5065 14.2344 26.334 13.1843 26.334 11.6996V10.2873C26.334 8.69395 25.1828 7.6438 23.4919 7.6438H14.1383V9.81653H17.4481H22.9883C23.5279 9.81653 23.9596 10.1787 23.9596 10.7218V11.4099C23.9596 11.953 23.5998 12.3152 22.9883 12.3152H17.4481H16.5487H14.1383V18.4712H16.5487V14.4879H21.2614L23.7797 18.4712H26.5138ZM82.8513 18.4712L80.405 14.4517C81.844 14.2344 82.6714 13.1843 82.6714 11.6996V10.2873C82.6714 8.69395 81.5202 7.6438 79.8294 7.6438H70.4758V9.81653H73.7135H79.2897C79.8294 9.81653 80.2611 10.1787 80.2611 10.7218V11.4099C80.2611 11.953 79.9013 12.3152 79.2897 12.3152H73.7135H72.8861H70.4758V18.4712H72.8861V14.4879H77.5989L80.1171 18.4712H82.8513ZM84.8299 18.4712H96.3061V16.2985H87.2763V14.0896H95.2988V11.9168H87.2763V9.85274H96.3061V7.68001H84.8299V18.4712ZM132.209 18.4712H134.656V14.1258H142.75V11.953H132.209V18.4712ZM143.614 9.85274V7.68001H132.209V9.85274H143.614ZM153.471 18.4712L152.392 16.4072H146.096L145.017 18.4712H142.283L148.039 7.6438H150.413L156.169 18.4712H153.471ZM147.247 14.2344H151.24L149.262 10.4321L147.247 14.2344ZM169.984 18.4712L167.537 14.4517C168.976 14.2344 169.804 13.1843 169.804 11.6996V10.2873C169.804 8.69395 168.653 7.6438 166.962 7.6438H157.608V9.81653H160.738H166.458C166.998 9.81653 167.429 10.1787 167.429 10.7218V11.4099C167.429 11.953 167.07 12.3152 166.458 12.3152H160.774H160.054H157.644V18.4712H160.054V14.4879H164.767L167.285 18.4712H169.984ZM184.59 7.68001L179.481 13.6188L174.373 7.68001H171.962V18.5075H174.337V11.1926L178.798 16.3347H180.237L184.662 11.1926V18.4712H187V7.6438H184.59V7.68001Z" fill="#7CA80C"/>
<path fill-rule="evenodd" clip-rule="evenodd" d="M51.5526 13.4378V4.81935C52.3441 4.0951 53.0996 3.40707 53.891 2.75525V2.93631V13.4378C53.891 16.5159 52.6319 19.3042 50.6173 21.3321C48.6026 23.36 45.8325 24.6274 42.7746 24.6274H34.6082C35.0399 23.8307 35.5076 23.0703 35.9753 22.2736H42.7746C45.185 22.2736 47.3795 21.2959 48.9624 19.6663C50.5813 18.0368 51.5526 15.8641 51.5526 13.4378ZM28.6363 33.2821C32.7375 20.2457 46.9118 4.85555 55.7617 0.473877C54.5746 0.763575 53.3514 1.19812 52.0923 1.70509H39.7167C36.6588 1.70509 33.8887 2.97252 31.8741 5.00041C29.8595 7.02829 28.6003 9.81662 28.6003 12.8947V23.9394V24.5912V33.2821H28.6363ZM47.3435 4.0951H39.7167C37.3064 4.0951 35.1119 5.07282 33.529 6.70237C31.946 8.29571 30.9387 10.5047 30.9387 12.9309V19.3042C34.6082 13.5465 40.9039 7.82496 47.3435 4.0951Z" fill="#85A630"/>
</svg>
