<svg width="18" height="17" viewBox="0 0 18 17" fill="none" xmlns="http://www.w3.org/2000/svg">
<path d="M17.0366 8.49714C17.0366 9.68694 17.0127 10.8802 17.0435 12.0699C17.0947 14.176 15.7716 15.8034 14.0861 16.5283C13.4091 16.8189 12.698 16.9727 11.9629 16.9727C9.66194 16.9761 7.35756 17.0069 5.05661 16.9625C3.3232 16.9283 1.8975 16.2035 0.875228 14.7743C0.338453 14.0222 0.0820312 13.1674 0.0820312 12.2409C0.0820312 9.78951 0.0820312 7.34153 0.0820312 4.89015C0.0820312 2.89006 1.05643 1.49171 2.78642 0.582265C3.53859 0.189085 4.35572 0.0215564 5.20704 0.0181375C7.43962 0.0181375 9.67561 0.00446163 11.9082 0.0249754C13.6416 0.0386512 15.0878 0.701928 16.1545 2.09686C16.7494 2.87638 17.0366 3.77215 17.0366 4.75681C17.0366 6.00131 17.0366 7.24922 17.0366 8.49714ZM1.34363 8.49714C1.34363 9.7519 1.34363 11.0032 1.34363 12.258C1.34363 12.8187 1.47355 13.3452 1.76416 13.8205C2.52658 15.0684 3.67877 15.6769 5.10789 15.7009C7.40201 15.7351 9.69955 15.7146 11.9971 15.7077C12.5612 15.7077 13.1082 15.5915 13.6177 15.3487C15.0058 14.6854 15.7819 13.629 15.775 12.0426C15.7614 9.61514 15.7716 7.18768 15.7716 4.76023C15.7716 4.07302 15.5767 3.44393 15.1699 2.89006C14.3835 1.82676 13.2963 1.30366 11.9971 1.28999C9.70638 1.26264 7.41569 1.27973 5.12499 1.28315C4.63608 1.28315 4.16426 1.3823 3.70612 1.55325C2.44795 2.02164 1.27866 3.20802 1.33337 4.95511C1.3744 6.13806 1.34363 7.3176 1.34363 8.49714Z" fill="white"/>
<path d="M8.5783 12.1214C6.37308 12.1214 4.59522 10.3641 4.5918 8.17594C4.58838 6.022 6.37991 4.25782 8.57146 4.25782C10.7699 4.2544 12.5545 6.01516 12.558 8.1862C12.558 10.3538 10.7767 12.118 8.5783 12.1214ZM8.5783 10.8564C10.0792 10.8564 11.2964 9.65635 11.293 8.17936C11.2895 6.71605 10.0724 5.51941 8.5783 5.51941C7.07738 5.51941 5.8534 6.71263 5.8534 8.1862C5.85681 9.66318 7.07738 10.8598 8.5783 10.8564Z" fill="white"/>
<path d="M13.0196 3.06055C13.4811 3.06055 13.8572 3.45373 13.8572 3.9358C13.8538 4.41787 13.4743 4.80763 13.0127 4.80421C12.558 4.80079 12.1853 4.41103 12.1853 3.93922C12.1819 3.45715 12.558 3.06055 13.0196 3.06055Z" fill="white"/>
</svg>
