<svg width="18" height="17" viewBox="0 0 18 17" fill="none" xmlns="http://www.w3.org/2000/svg">
<path d="M3.51562 3.71875C2.81689 3.71875 2.25 4.25415 2.25 4.91406C2.25 5.29009 2.43721 5.6437 2.75625 5.87031L8.49375 9.93438C8.79434 10.146 9.20566 10.146 9.50625 9.93438L15.2437 5.87031C15.5628 5.6437 15.75 5.29009 15.75 4.91406C15.75 4.25415 15.1831 3.71875 14.4844 3.71875H3.51562ZM2.25 6.50781V11.6875C2.25 12.5666 3.00674 13.2812 3.9375 13.2812H14.0625C14.9933 13.2812 15.75 12.5666 15.75 11.6875V6.50781L10.0125 10.5719C9.41133 10.9977 8.58867 10.9977 7.9875 10.5719L2.25 6.50781Z" fill="white"/>
</svg>
