<svg width="18" height="18" viewBox="0 0 18 18" fill="none" xmlns="http://www.w3.org/2000/svg">
<path d="M6.59795 2.89874C6.39492 2.40831 5.85967 2.14727 5.34814 2.28702L3.02783 2.91983C2.56904 3.0464 2.25 3.463 2.25 3.93761C2.25 10.4608 7.53926 15.7501 14.0625 15.7501C14.5371 15.7501 14.9537 15.4311 15.0803 14.9723L15.7131 12.652C15.8528 12.1404 15.5918 11.6052 15.1014 11.4022L12.5701 10.3475C12.1403 10.1682 11.642 10.2921 11.3493 10.6533L10.2841 11.9532C8.42783 11.0752 6.9249 9.57227 6.04688 7.71602L7.34678 6.65343C7.70801 6.35811 7.83193 5.86241 7.65264 5.43263L6.59795 2.90138V2.89874Z" fill="white"/>
</svg>
