<svg width="212" height="57" viewBox="0 0 212 57" fill="none" xmlns="http://www.w3.org/2000/svg">
<path d="M14.0887 57H21.1887V31.95H35.1387V25.65H0.288672V31.95H14.0887V57ZM48.0828 57H65.3828C70.9828 57 74.4828 53.9 74.4828 48.7V34.1C74.4828 28.75 70.9828 25.65 65.4328 25.65H48.0828C42.4328 25.65 38.9828 28.75 38.9828 34.1V48.7C38.9828 53.9 42.5828 57 48.0828 57ZM49.6328 50.7C47.3828 50.7 45.9828 49.4 45.9828 47.05V35.6C45.9828 33.35 47.1328 31.95 49.8328 31.95H63.6328C66.3328 31.95 67.4828 33.15 67.4828 35.6V47.05C67.4828 49.55 66.3328 50.7 63.8828 50.7H49.6328ZM80.4555 57H87.5055V46.35H107.305C112.905 46.35 115.955 43.35 115.955 38.15V33.75C115.955 28.85 112.755 25.65 107.605 25.65H80.4555V57ZM87.5055 40V31.95H105.955C107.705 31.95 109.005 33.05 109.005 34.5V37.4C109.005 38.8 108.105 40 105.955 40H87.5055ZM121.916 44.6H140.666V38.35H121.916V44.6ZM148.698 57H196.848C205.488 57 211.338 51.96 211.338 44.31V35.67C211.338 27.39 206.208 22.26 197.208 22.26H161.658V11.91H209.088V0.569997H149.058V33.78H192.708C196.668 33.78 198.738 35.22 198.738 38.19V41.16C198.738 44.04 196.848 45.57 192.618 45.57H148.698V57Z" fill="#313131"/>
</svg>
