<svg width="20" height="21" viewBox="0 0 20 21" fill="none" xmlns="http://www.w3.org/2000/svg">
<path d="M5.93747 3.60938C5.93747 3.06489 6.35642 2.625 6.87497 2.625H14.375C14.8935 2.625 15.3125 3.06489 15.3125 3.60938C15.3125 4.15386 14.8935 4.59375 14.375 4.59375H13.5107L13.8447 9.15264C14.9199 9.76479 15.7695 10.7892 16.1738 12.0658L16.2031 12.1581C16.2998 12.4595 16.25 12.7887 16.0742 13.044C15.8984 13.2993 15.6142 13.4531 15.3125 13.4531H5.93747C5.63572 13.4531 5.35447 13.3024 5.17575 13.044C4.99704 12.7856 4.95017 12.4564 5.04685 12.1581L5.07615 12.0658C5.48044 10.7892 6.33005 9.76479 7.40525 9.15264L7.73923 4.59375H6.87497C6.35642 4.59375 5.93747 4.15386 5.93747 3.60938ZM9.68747 14.4375H11.5625V17.3906C11.5625 17.9351 11.1435 18.375 10.625 18.375C10.1064 18.375 9.68747 17.9351 9.68747 17.3906V14.4375Z" fill="white"/>
</svg>
